<svg id="Layer_1" data-name="Layer 1" xmlns="http://www.w3.org/2000/svg" viewBox="0 0 512 512"><defs><style>.cls-1{fill:#287ec2;}.cls-2{fill:#fff;}</style></defs><title>lab</title><circle class="cls-1" cx="256" cy="256" r="256"/><path class="cls-2" d="M122.34,312.8h59.29v25.3h-91V175.85h31.76v137Z" transform="translate(0.3 -0.48)"/><path class="cls-2" d="M272.56,303.44H229.77l-8.69,34.66h-32l45.69-162.25h33L313.35,338.1h-32Zm-36.33-25.3H266.1l-14.6-57.39h-0.67Z" transform="translate(0.3 -0.48)"/><path class="cls-2" d="M325.94,338.1V175.85h47.8q25.07,0,39.17,11.14T427,220.2a40.71,40.71,0,0,1-5.13,20.56,31.58,31.58,0,0,1-15.38,13.43q12.82,3,18.95,13t6.13,23.51q0,23.29-13.32,35.32t-38.17,12H325.94Zm31.76-93.72h17.5q9.69-.22,14.87-5.64t5.18-15.58q0-11.39-5.35-16.7t-16.16-5.31h-16v43.24Zm0,22.18V312.8h22.4q10,0,15-5.57t5-16.6q0-11.59-4.23-17.83t-13.59-6.24H357.7Z" transform="translate(0.3 -0.48)"/></svg>