<?xml version="1.0" encoding="iso-8859-1"?>
<!-- Generator: Adobe Illustrator 18.0.0, SVG Export Plug-In . SVG Version: 6.00 Build 0)  -->
<!DOCTYPE svg PUBLIC "-//W3C//DTD SVG 1.1//EN" "http://www.w3.org/Graphics/SVG/1.1/DTD/svg11.dtd">
<svg xmlns="http://www.w3.org/2000/svg" xmlns:xlink="http://www.w3.org/1999/xlink" version="1.1" id="Capa_1" x="0px" y="0px" viewBox="0 0 512 512" style="enable-background:new 0 0 512 512;" xml:space="preserve" width="512px" height="512px">
<path d="M480,0H368H144H32C14.328,0,0,13.951,0,31.623v448C0,497.295,14.328,512,32,512h112h224h112c17.672,0,32-14.705,32-32.377  v-448C512,13.951,497.672,0,480,0z M112,448H64v-48h48V448z M112,336H64v-48h48V336z M112,224H64v-48h48V224z M112,112H64V64h48V112  z M224,319.623v-112l96,56L224,319.623z M448,448h-48v-48h48V448z M448,336h-48v-48h48V336z M448,224h-48v-48h48V224z M448,112h-48  V64h48V112z" fill="#0280d4"/>
<g>
</g>
<g>
</g>
<g>
</g>
<g>
</g>
<g>
</g>
<g>
</g>
<g>
</g>
<g>
</g>
<g>
</g>
<g>
</g>
<g>
</g>
<g>
</g>
<g>
</g>
<g>
</g>
<g>
</g>
</svg>
